<?xml version="1.0" encoding="UTF-8" standalone="no"?>
<!-- Created with Inkscape (http://www.inkscape.org/) -->

<svg
   xmlns:dc="http://purl.org/dc/elements/1.1/"
   xmlns:cc="http://creativecommons.org/ns#"
   xmlns:rdf="http://www.w3.org/1999/02/22-rdf-syntax-ns#"
   xmlns:svg="http://www.w3.org/2000/svg"
   xmlns="http://www.w3.org/2000/svg"
   xmlns:sodipodi="http://sodipodi.sourceforge.net/DTD/sodipodi-0.dtd"
   xmlns:inkscape="http://www.inkscape.org/namespaces/inkscape"
   version="1.1"
   id="svg2"
   width="500"
   height="500"
   viewBox="0 0 500 500"
   sodipodi:docname="heartbeat_camper.svg"
   inkscape:version="0.92.1 r15371">
  <metadata
     id="metadata8">
    <rdf:RDF>
      <cc:Work
         rdf:about="">
        <dc:format>image/svg+xml</dc:format>
        <dc:type
           rdf:resource="http://purl.org/dc/dcmitype/StillImage" />
        <dc:title></dc:title>
      </cc:Work>
    </rdf:RDF>
  </metadata>
  <defs
     id="defs6">
    <inkscape:path-effect
       effect="skeletal"
       id="path-effect4669"
       is_visible="true"
       pattern="M 0,5 C 0,2.24 2.24,0 5,0 7.76,0 10,2.24 10,5 10,7.76 7.76,10 5,10 2.24,10 0,7.76 0,5 Z"
       copytype="single_stretched"
       prop_scale="1"
       scale_y_rel="false"
       spacing="0"
       normal_offset="0"
       tang_offset="0"
       prop_units="false"
       vertical_pattern="false"
       fuse_tolerance="0" />
    <inkscape:path-effect
       effect="skeletal"
       id="path-effect4554"
       is_visible="false"
       pattern="M 0,5 C 0,2.24 2.24,0 5,0 7.76,0 10,2.24 10,5 10,7.76 7.76,10 5,10 2.24,10 0,7.76 0,5 Z"
       copytype="single_stretched"
       prop_scale="1"
       scale_y_rel="false"
       spacing="0"
       normal_offset="0"
       tang_offset="0"
       prop_units="false"
       vertical_pattern="false"
       fuse_tolerance="0" />
    <inkscape:path-effect
       effect="spiro"
       id="path-effect4552"
       is_visible="true" />
    <inkscape:path-effect
       effect="skeletal"
       id="path-effect4536"
       is_visible="true"
       pattern="M 0,5 C 0,2.24 2.24,0 5,0 7.76,0 10,2.24 10,5 10,7.76 7.76,10 5,10 2.24,10 0,7.76 0,5 Z"
       copytype="single_stretched"
       prop_scale="1"
       scale_y_rel="false"
       spacing="0"
       normal_offset="0"
       tang_offset="0"
       prop_units="false"
       vertical_pattern="false"
       fuse_tolerance="0" />
    <inkscape:path-effect
       effect="bspline"
       id="path-effect4534"
       is_visible="true"
       weight="33.333333"
       steps="2"
       helper_size="0"
       apply_no_weight="true"
       apply_with_weight="true"
       only_selected="false" />
  </defs>
  <sodipodi:namedview
     pagecolor="#ffffff"
     bordercolor="#666666"
     borderopacity="1"
     objecttolerance="10"
     gridtolerance="10"
     guidetolerance="10"
     inkscape:pageopacity="0"
     inkscape:pageshadow="2"
     inkscape:window-width="1366"
     inkscape:window-height="715"
     id="namedview4"
     showgrid="false"
     inkscape:zoom="0.5"
     inkscape:cx="524.38036"
     inkscape:cy="318.99138"
     inkscape:window-x="-8"
     inkscape:window-y="-8"
     inkscape:window-maximized="1"
     inkscape:current-layer="svg2" />
  <path
     style="fill:#000000;stroke-width:0.62942165"
     d="m 78.966864,143.64784 c -0.65947,-6.3e-4 -1.326292,0.20029 -1.927604,0.67367 -0.526222,0.64055 -1.113926,7.48332 -1.233025,8.90288 -0.152314,4.82194 -0.719863,9.70991 -1.151892,14.69306 -0.747766,8.62493 -1.045753,17.23472 -1.400218,25.794 -0.522974,12.62817 -1.171587,25.25766 -1.855076,37.88947 -0.784083,14.4911 -1.614586,28.98756 -2.323447,43.50018 -0.398122,8.15071 -0.757717,16.30109 -1.116242,24.44664 -0.350141,7.9551 -0.697129,15.8947 -1.199835,23.81107 -0.211492,3.33049 -0.431167,6.69053 -0.63311,10.05231 -0.07254,-0.72732 -0.146202,-1.46636 -0.215137,-2.19068 -0.476799,-5.01004 -0.837672,-10.0469 -1.197374,-15.1012 -0.280193,-3.93711 -0.558146,-7.8607 -0.764647,-11.77585 -0.155737,-2.95281 -0.273005,-5.94579 -0.495424,-8.96803 -0.26002,-3.53327 -0.656644,-7.01044 -0.989621,-10.44938 -0.112144,-1.15824 -0.217736,-2.32302 -0.327003,-3.49379 -0.225169,-2.41263 -0.456683,-4.79182 -0.594999,-7.14369 -0.07425,-1.26261 -0.125097,-2.57002 -0.222513,-3.91668 -0.158399,-2.18969 -0.432899,-4.31197 -0.665072,-6.38272 -0.152756,-1.36249 -0.29643,-2.81814 -0.608523,-4.33219 -0.147288,-0.71455 -0.353288,-1.73647 -1.143285,-2.74266 -0.140792,-0.17932 -0.340648,-0.41498 -0.649091,-0.65155 -0.314383,-0.24114 -0.724977,-0.47312 -1.267449,-0.58025 -0.528304,-0.1044 -1.015956,-0.0561 -1.45062,0.0762 -0.427859,0.13025 -0.775818,0.33491 -1.06092,0.56304 -0.562256,0.4501 -0.839362,0.94086 -1.014205,1.28589 -0.216443,0.42713 -0.337526,0.79204 -0.431498,1.06338 -2.428505,7.01155 -3.778918,14.13114 -5.969672,20.76969 -0.232406,0.70422 -0.444288,1.27162 -0.677366,1.67066 -0.223713,0.38301 -0.485927,0.62128 -0.642945,0.70073 -0.120158,0.0608 -0.373326,0.13243 -0.726539,0.14752 -0.360553,0.0154 -0.834826,-0.0237 -1.417428,-0.0774 h -0.0013 c -9.551538,-0.88249 -19.178114,-0.92697 -28.738266,-0.14752 -0.814735,-1.87831 -2.665887,-3.09455 -4.713287,-3.0967 -2.8397626,6.3e-4 -5.1416866,2.30256 -5.1423266,5.14232 -3.7e-5,2.84024 2.302084,5.14291 5.1423266,5.14356 1.81175,-10e-4 3.489137,-0.95593 4.415787,-2.51277 9.514006,-0.81652 19.102139,-0.78885 28.610414,0.0897 v 0.001 c 0.567407,0.0524 1.248162,0.12611 2.041933,0.0922 0.801497,-0.0342 1.712304,-0.1807 2.623411,-0.64171 1.207299,-0.61089 2.007105,-1.56441 2.554566,-2.50171 0.538103,-0.92125 0.830135,-1.80926 1.076902,-2.55702 1.793607,-5.43507 3.095356,-10.84397 4.608793,-16.09451 0.228624,2.01517 0.478123,3.98652 0.617128,5.9082 0.08976,1.24071 0.139545,2.5257 0.217593,3.85275 0.145386,2.47191 0.383435,4.90367 0.607294,7.30228 0.108628,1.16395 0.215624,2.33405 0.329463,3.50976 0.338002,3.49084 0.728817,6.9323 0.979783,10.34244 0.214672,2.91691 0.331356,5.87677 0.489278,8.87091 0.209389,3.96993 0.489251,7.92288 0.769566,11.86189 0.35988,5.05676 0.724887,10.13084 1.208436,15.21185 0.250038,2.62725 0.529703,5.23051 0.765881,7.81614 0.08097,0.88641 0.159407,3.35741 0.282748,4.31375 0.663833,3.68374 0.679197,7.54811 1.751807,12.10776 0.567852,0.32248 1.180424,0.46575 1.794834,0.45486 0.911529,-0.0161 1.65667,-0.35635 2.237399,-0.8003 0.560733,-0.93572 1.460045,-10.15022 2.151345,-15.24873 0.182922,-1.28826 0.233918,-2.51245 0.29258,-3.65482 0.221229,-4.30866 0.544507,-8.63798 0.821201,-12.99535 0.506539,-7.9768 0.854622,-15.94737 1.204751,-23.90204 0.358499,-8.1451 0.718824,-16.28702 1.116241,-24.42329 0.707609,-14.4869 1.535166,-28.97499 2.319766,-43.47558 0.683929,-12.64009 1.33574,-25.28945 1.859991,-37.94848 0.35534,-8.58019 0.652792,-17.12112 1.386692,-25.58624 0.02203,-0.25455 0.03733,-0.52319 0.06024,-0.77818 0.229052,3.49166 0.458137,6.98008 0.690884,10.48135 0.996236,14.98678 2.224232,29.95072 3.533121,44.89794 0.664273,7.58566 1.345584,15.14161 1.744436,22.68376 0.504544,9.54057 0.554407,19.33496 2.41934,29.06773 0.0901,0.47018 0.182513,0.93753 0.27906,1.40268 0.484315,2.51297 1.143603,4.5602 2.268128,6.02376 0.870075,0.29433 1.6628,0.16447 2.311161,-0.12416 1.031962,-1.62997 1.921691,-4.28976 2.398431,-6.36183 0.15244,-0.68041 0.18314,-1.23894 0.22743,-1.64977 0.18934,-1.7561 0.67329,-3.60952 1.13222,-5.61071 1.18043,-5.14779 1.89494,-10.3132 2.65046,-15.38887 0.13551,-0.91039 0.34603,-1.74871 0.49174,-2.64185 0.48895,2.35234 0.911555,4.79754 1.443245,7.34039 0.83973,4.01603 2.02325,7.77743 2.69594,11.47096 0.34504,1.89461 0.58177,3.93989 1.05355,6.07171 0.47298,2.13727 1.19526,4.37811 2.55087,6.40854 0.7768,1.16348 1.76824,2.26146 3.03156,3.11269 2.33122,1.57081 4.96182,1.94184 7.25556,2.09357 3.4573,0.22869 6.79774,-0.0174 10.0019,-0.15244 2.49653,-0.10515 5.00002,-0.14916 7.5088,-0.15736 32.45317,1.21285 68.48651,0.87974 100.46039,0.83472 11.31957,0.25793 22.24142,0.42019 32.70903,0.0922 4.34395,-0.0127 8.7746,0.009 12.42985,0.0111 0.59429,0.0267 1.32605,-0.0201 2.10586,-0.37863 0.84972,-0.3906 1.35568,-0.95541 1.70141,-1.37686 0.7323,-0.89272 1.16207,-1.75174 1.54282,-2.39476 0.46675,-0.78822 1.10726,-1.75663 1.63625,-2.94426 0.0576,0.40217 0.12982,0.76789 0.1844,1.19492 0.64954,5.08128 1.31881,10.15148 1.95219,15.21799 0.39796,3.18342 0.78173,6.3664 1.14574,9.55074 0.49167,4.30105 0.95221,8.66928 1.71616,13.04943 0.41814,1.62333 1.09248,13.70349 3.16924,16.16336 0.37216,0.24577 0.83523,0.42635 1.40759,0.42904 h 10e-4 c 0.50517,0.003 0.9232,-0.13781 1.26745,-0.33069 1.06013,-0.67938 1.64522,-8.52822 1.80836,-9.15244 0.42803,-1.37656 0.51317,-2.65691 0.60115,-3.75194 0.15312,-1.90596 0.30931,-3.81495 0.46346,-5.72626 1.53749,-19.0634 2.77246,-38.15575 3.60319,-57.27123 0.0217,-0.49958 0.0836,-0.93393 0.10941,-1.41744 0.86899,3.57472 1.69578,7.15611 2.37263,10.75918 0.55563,2.95778 1.04776,6.00272 1.76164,9.07376 0.39801,1.71225 0.8744,3.47529 1.5797,5.21977 0.28861,0.71386 0.70106,1.75811 1.76533,2.62833 0.81047,0.6627 1.69457,0.94624 2.46851,1.08305 0.76064,0.13444 1.40227,0.12989 1.90425,0.13768 2.1656,0.0336 4.36551,0.14454 6.60155,0.23112 2.83345,0.10971 5.6605,0.17614 8.47876,0.23235 7.67522,0.15309 15.34602,0.22026 23.01323,0.2557 0.0216,0.0186 0.0424,0.0353 0.0639,0.0541 8.59056,0.25256 6.24644,-1.44821 1.10271,-5.90452 -11.7431,-10.11894 -14.84395,-13.4533 -17.19477,-18.50033 -2.17045,-4.65979 -3.07115,-11.71278 -2.0825,-16.3035 1.86528,-8.66112 9.23836,-14.16574 18.25446,-13.62968 5.73758,0.34115 9.84444,2.58175 14.15954,7.72639 1.52416,2.2312 1.66801,1.2691 3.17292,-0.55443 3.89839,-4.72622 9.05469,-7.28278 14.66356,-7.27031 8.60159,0.0192 15.47285,5.4871 17.24763,13.72803 0.98866,4.59072 0.0867,11.64371 -2.08373,16.3035 -2.35081,5.04703 -5.44925,8.38139 -17.19231,18.50033 -5.78541,4.5249 -4.44336,6.05668 2.17224,5.93402 9.92628,0.0403 19.8437,0.13242 29.75002,0.38724 0.8733,0.0224 1.81107,0.0513 2.80904,-0.001 0.90976,-0.0481 1.9026,-0.16426 2.92828,-0.48804 1.03504,-0.32673 1.97108,-0.82796 2.79921,-1.42972 1.09403,-0.79499 2.09972,-1.8384 2.78199,-3.17539 0.99884,-1.95738 1.05114,-3.89153 1.17648,-5.40417 0.29894,-3.60785 0.8695,-7.2542 1.40637,-10.96817 1.56286,-10.81165 2.73263,-21.63952 4.00027,-32.41891 0.32876,-2.79562 0.664,-5.59103 1.00437,-8.38655 0.23325,-1.91578 0.46667,-3.83573 0.70195,-5.75331 0.28682,1.82246 0.59972,3.64101 0.86422,5.46687 3.10488,21.4321 4.67862,43.22282 8.5476,64.80831 0.32196,1.79627 0.6484,3.53619 0.85685,5.23576 0.24956,1.26164 0.86137,5.11181 1.45799,8.0743 0.34278,1.37717 0.15901,2.82746 1.61905,3.03647 h 0.003 c 1.64144,0.008 1.61908,-2.0701 1.87843,-3.08687 0.65792,-2.58639 1.46573,-6.11311 1.81942,-7.74484 0.40248,-1.47906 1.75073,-6.80773 2.24969,-10.02403 0.54843,-3.48356 1.42676,-6.9888 2.26567,-10.58461 0.67503,-2.89335 1.3292,-5.73172 2.05054,-8.53285 0.11981,0.3598 0.26727,0.7462 0.37741,1.10272 0.9529,3.08478 1.59804,6.4503 2.72053,9.86668 0.75635,2.30197 1.67195,4.44769 2.48326,6.53394 0.74256,2.67714 1.75715,3.5357 4.47111,3.88963 1.83912,0.23626 3.91387,0.33679 5.30214,0.36879 3.3118,0.34567 6.64842,0.43543 9.97363,0.27907 0.95079,1.44126 2.56131,2.30932 4.28794,2.31116 2.84072,3e-5 5.14359,-2.30284 5.14355,-5.14356 6.3e-4,-2.84121 -2.30235,-5.14482 -5.14355,-5.14478 -2.14991,0.003 -4.071,1.34329 -4.81655,3.35978 -2.98953,0.12558 -5.9877,0.0339 -8.96312,-0.2766 -4.43765,-0.46938 -5.1498,0.65599 -6.73186,-3.34381 -0.57746,-1.46009 -1.1375,-2.88474 -1.59691,-4.28301 -0.9992,-3.04117 -1.6427,-6.37842 -2.69594,-9.78801 -1.08041,-2.93204 -1.9263,-5.71152 -2.58038,-8.41359 -0.50069,-2.05165 -1.27735,-4.42156 -2.59637,-4.61248 -1.13522,0.30109 -1.8964,2.35069 -2.48941,4.72803 -0.50901,2.0406 -0.8942,4.32287 -1.28712,5.95001 -0.92222,3.39102 -1.65481,6.77493 -2.42918,10.09411 -0.82688,3.54426 -1.7378,7.15993 -2.32959,10.91898 -0.23858,1.51536 -0.51899,2.78997 -0.77449,4.1355 -3.77622,-21.1781 -5.35796,-42.82031 -8.48121,-64.37927 -1.10357,-6.19182 -1.83682,-15.45381 -1.90302,-17.45047 0.0244,-3.37398 -0.0176,-7.10671 -0.68351,-8.47507 -0.25179,-0.54826 -0.69125,-1.18437 -1.55143,-1.56986 -0.44761,-0.20055 -0.89123,-0.27357 -1.31294,-0.25939 -0.14054,0.005 -0.27918,0.0193 -0.41428,0.0418 -0.52908,0.0882 -0.9597,0.29388 -1.31048,0.53722 -0.56619,0.39296 -0.88047,0.84391 -1.08796,1.17894 -0.48159,0.77743 -0.71461,5.23395 -0.84702,8.9877 -0.20887,1.96141 -1.02743,12.25239 -1.65468,17.40007 -0.34099,2.80055 -0.67596,5.60179 -1.00561,8.40499 -1.27105,10.80857 -2.43738,21.59698 -3.98429,32.29843 -0.53141,3.67619 -1.12068,7.41363 -1.43832,11.24723 -0.13162,1.58865 -0.26911,2.86492 -0.68475,3.67942 -0.27807,0.54494 -0.7617,1.08351 -1.37686,1.53052 -0.4709,0.3422 -0.97156,0.60061 -1.46783,0.75727 -0.49392,0.15592 -1.09485,0.24425 -1.77639,0.28029 -0.75105,0.0397 -1.56636,0.0195 -2.44392,-0.004 -6.11575,-0.15734 -12.22955,-0.25168 -18.34052,-0.31103 -6.81785,0.11656 -6.20154,-1.05267 -1.65838,-5.09807 7.33083,-6.71412 10.08219,-10.22936 12.24545,-14.87378 2.65685,-5.70406 3.75988,-14.33881 2.54965,-19.95832 -2.17251,-10.08776 -10.58218,-16.78041 -21.11145,-16.80384 -6.86584,-0.0152 -13.18,3.11502 -17.95204,8.90041 -1.98687,2.50801 -1.83581,3.12016 -3.88348,0.67737 -5.28212,-6.29757 -10.30904,-9.04095 -17.33245,-9.45854 -11.03661,-0.65619 -20.06117,6.08247 -22.34448,16.6846 -1.2102,5.61951 -0.10721,14.25426 2.54965,19.95832 2.52384,5.41848 5.84579,9.29602 16.30719,18.51263 1.53843,1.08612 0.61948,1.18285 -0.69335,1.24654 -5.13955,-0.041 -10.27688,-0.10044 -15.411,-0.20284 -2.80601,-0.056 -5.60376,-0.12318 -8.39147,-0.23111 -2.20003,-0.0852 -4.43397,-0.19824 -6.70727,-0.23358 -0.78808,-0.0528 -1.48424,-0.37081 -1.91039,-0.94904 -0.56843,-1.40594 -0.99074,-2.93247 -1.36212,-4.53012 -0.66645,-2.86704 -1.14993,-5.84571 -1.71984,-8.87952 -0.79523,-4.23321 -1.73723,-8.43058 -2.77708,-12.59335 -0.34651,-1.38716 -0.6884,-2.71989 -0.93922,-4.01749 -0.3188,-1.82102 -0.99295,-3.12075 -1.35226,-4.69853 -0.40585,-1.7849 -0.96517,-4.38151 -1.4875,-4.69977 -10e-4,-5.1e-4 -0.003,-5.3e-4 -0.004,-0.001 -0.33567,-0.10169 -0.75565,-0.16841 -1.25884,-0.0848 h -0.001 c -0.51992,0.0866 -1.05509,0.31717 -1.51086,0.81505 -0.20273,1.05953 -0.44751,2.68237 -0.64294,4.04576 -0.0897,1.86921 -0.80377,3.61189 -0.98225,5.43859 -0.0729,0.58527 -0.20428,1.25563 -0.31962,2.02104 -0.2662,1.76659 -0.33181,3.47256 -0.402,5.08824 -0.81204,18.6855 -2.02186,37.35603 -3.51468,56.00747 -0.46937,-3.21756 -0.9014,-6.44476 -1.27851,-9.74375 -0.36622,-3.20364 -0.7523,-6.40217 -1.1519,-9.59868 -0.63597,-5.08732 -1.30545,-10.16252 -1.95341,-15.23151 -0.12317,-0.96356 -0.25051,-1.98995 -0.47453,-3.06228 -0.58043,-3.03931 -1.09823,-7.30385 -1.651,-7.71042 -0.42828,-0.34855 -0.95372,-0.63059 -1.58831,-0.75973 -0.66972,-0.13646 -1.29958,-0.0709 -1.85999,0.1094 -0.54453,0.26088 -1.79587,4.85273 -2.82994,7.41907 -0.46832,1.27144 -1.35948,2.87939 -2.01243,3.97814 -0.68828,1.17413 -0.48103,1.71276 -1.91039,1.76779 -4.15269,-0.0318 -8.35349,0.12759 -12.21963,0.10818 -5.6687,-0.0284 -11.36805,0.37188 -17.12347,0.19547 -17.60929,-0.0753 -33.46424,-0.20315 -48.74208,-0.36881 2.6833,-2.36072 4.49812,-5.51899 5.47917,-9.53475 l 0.84578,-3.46305 27.71669,0.0196 c 15.2438,0.0104 28.61072,-0.14028 29.7033,-0.33438 1.09258,-0.19415 2.56005,-1.01381 3.26266,-1.82188 1.18405,-1.36183 1.68857,-1.46906 6.88062,-1.46906 h 5.60086 v 10e-4 h 4.20803 v -10e-4 h 2.10341 c 2.09561,0 2.10339,-0.01 2.10339,-2.73036 v -2.7316 l -9.46714,0.0811 c -8.8666,0.0756 -9.45844,0.0108 -9.33191,-1.02527 3.58021,-29.31501 3.0195,-43.06845 -2.22757,-54.60111 -5.97192,-13.12586 -18.01299,-20.8519 -37.61286,-24.13193 -4.06519,-0.6803 -12.24691,-1.06444 -20.80166,-1.12607 -8.55473,-0.0616 -17.4831,0.19791 -23.04028,0.8089 -20.59538,2.26434 -37.11329,7.56095 -48.07577,15.41346 -4.13391,2.96113 -10.63808,9.56527 -13.33956,13.54363 -6.8841,10.13788 -10.56233,23.61844 -10.65837,39.06841 -0.0491,7.89384 0.076,8.99851 1.33014,11.72052 1.67271,3.63058 3.81705,5.98373 7.03059,7.71779 2.32884,1.25654 3.14372,1.3042 25.99562,1.47521 l 23.59225,0.17579 v 1.70141 c 0,3.9073 2.12695,7.92511 5.47917,10.95956 -7.83452,-0.10592 -15.66911,-0.21984 -23.65741,-0.34176 h -27.84965 c -0.007,0.008 -0.0147,0.0164 -0.0221,0.0246 -3.26275,0.13895 -6.40608,0.3525 -9.41183,0.15367 -1.97825,-0.13085 -3.74968,-0.48889 -4.96899,-1.31048 -0.65492,-0.4413 -1.25899,-1.08008 -1.76656,-1.84031 -0.89376,-1.33868 -1.47733,-3.01574 -1.87966,-4.83377 -0.40355,-1.8235 -0.63587,-3.80996 -1.01666,-5.90083 -0.74232,-4.07591 -1.94394,-7.87616 -2.72053,-11.59021 -0.74885,-3.58137 -1.16627,-7.49671 -2.40827,-11.39843 -0.49059,-2.03814 -1.05911,-5.69062 -2.73037,-7.25802 l -10e-4,-0.001 c -0.529315,-0.21364 -1.145375,-0.30611 -1.823115,-0.15244 -0.52574,0.11915 -0.94655,0.35833 -1.28343,0.63926 -0.35735,1.2402 -1.19108,3.86979 -1.22319,5.21854 -0.2512,1.77541 -1.18087,5.73377 -1.59568,8.52055 -0.759914,5.10505 -1.4652,10.14889 -2.585306,15.03359 -0.102338,0.44628 -0.177226,0.98421 -0.286431,1.4457 -0.996406,-7.62502 -1.1726,-15.47113 -1.591996,-23.4017 -0.404951,-7.65737 -1.093218,-15.26528 -1.756729,-22.84235 -1.307429,-14.93028 -2.532674,-29.85934 -3.525744,-44.79836 -0.312967,-8.32231 -1.047055,-15.16611 -1.86368,-22.83498 -0.235555,-2.3037 -0.502392,-5.54825 -1.145742,-9.92322 -0.452951,-0.55642 -1.106209,-1.06058 -2.028413,-1.24287 -0.215734,-0.0426 -0.434188,-0.0649 -0.654007,-0.0651 z m 141.236346,48.14953 h 8.37918 8.62013 c 2.12083,0.0602 3.37509,0.60337 4.32481,1.77025 0.97417,1.11777 1.49249,2.35331 1.48258,4.47111 l -0.14751,31.47232 -0.15122,32.31687 c -0.13197,0.5655 -0.0928,0.86902 -1.02526,0.90725 l -12.84291,0.14998 c -6.12543,0.0713 -11.47515,0.0129 -13.46004,-0.13031 -0.28821,-0.0837 -1.03538,0.20722 -0.9134,-1.1691 -0.17944,-3.72411 -0.31348,-16.89938 -0.31348,-32.32917 v -30.6757 c 0,-2.1969 -0.2341,-3.48378 1.09534,-5.13864 1.50604,-1.41704 2.76905,-1.62505 4.95178,-1.64486 z m 8.37918,5.68324 c -3.89751,0 -7.79468,0.2502 -8.29436,0.7499 -1.01574,1.01573 -1.01574,22.18434 0,23.20009 0.99935,0.99934 15.59058,0.99934 16.58994,0 1.01574,-1.01575 1.01574,-22.18436 0,-23.20009 -0.49968,-0.4997 -4.39808,-0.7499 -8.29558,-0.7499 z m -72.40317,11.74757 c 1.41052,-0.007 3.03173,0.001 4.89891,0.001 14.60068,0 14.00955,-0.39251 14.00955,9.27782 0,5.95486 -0.10411,6.53891 -1.39038,7.7473 -1.3285,1.24813 -1.91137,1.30679 -12.92405,1.30679 -14.61329,0 -13.93578,0.44785 -13.93578,-9.22374 0,-8.36013 -0.5319,-9.06401 9.34175,-9.1094 z m -33.52532,24.93715 h 85.55956 c 0.79519,0 1.43465,0.64068 1.43464,1.43586 v 0.4106 c 0,0.79519 -0.63945,1.43587 -1.43464,1.43587 H 122.6539 c -0.79518,0 -1.43463,-0.64068 -1.43463,-1.43587 v -0.4106 c 0,-0.79518 0.63945,-1.43586 1.43463,-1.43586 z m 125.88435,0 h 19.31293 c 0.79518,0 1.43464,0.64068 1.43463,1.43586 v 0.4106 c 0,0.79519 -0.63945,1.43587 -1.43463,1.43587 h -19.31293 c -0.79518,0 -1.43463,-0.64068 -1.43463,-1.43587 v -0.4106 c 0,-0.79518 0.63945,-1.43586 1.43463,-1.43586 z m -58.18463,25.17687 c 5.63496,-0.11113 10.59393,4.13555 10.56986,10.41987 -0.0112,2.93515 -1.8996,6.69903 -4.19696,8.3632 -1.95032,1.41277 -5.80814,2.21289 -8.21076,1.70386 -4.82129,-1.02137 -8.62013,-5.51341 -8.62013,-10.19368 0,-2.97504 2.34514,-7.2346 4.75755,-8.64348 1.86905,-1.09159 3.82212,-1.61274 5.70044,-1.64977 z m 0.34914,5.48531 c -2.56433,0 -3.89509,0.829 -4.78705,2.98237 -0.86121,2.07917 -0.0242,5.00938 1.7223,6.02991 3.24212,1.89433 7.88621,-0.58168 7.88621,-4.20434 0,-2.4773 -2.33787,-4.80794 -4.82146,-4.80794 z"
     id="path4487-2"
     inkscape:connector-curvature="0" />
</svg>
