<?xml version="1.0" encoding="UTF-8" standalone="no"?>
<!-- Created with Inkscape (http://www.inkscape.org/) -->

<svg
   xmlns:osb="http://www.openswatchbook.org/uri/2009/osb"
   xmlns:dc="http://purl.org/dc/elements/1.1/"
   xmlns:cc="http://creativecommons.org/ns#"
   xmlns:rdf="http://www.w3.org/1999/02/22-rdf-syntax-ns#"
   xmlns:svg="http://www.w3.org/2000/svg"
   xmlns="http://www.w3.org/2000/svg"
   xmlns:sodipodi="http://sodipodi.sourceforge.net/DTD/sodipodi-0.dtd"
   xmlns:inkscape="http://www.inkscape.org/namespaces/inkscape"
   version="1.1"
   id="svg2"
   width="500"
   height="500"
   viewBox="0 0 500 500"
   sodipodi:docname="Tinkerbell_Flying_No_Wand_Clear_Wings.svg"
   inkscape:version="0.92.1 r15371">
  <metadata
     id="metadata8">
    <rdf:RDF>
      <cc:Work
         rdf:about="">
        <dc:format>image/svg+xml</dc:format>
        <dc:type
           rdf:resource="http://purl.org/dc/dcmitype/StillImage" />
        <dc:title></dc:title>
      </cc:Work>
    </rdf:RDF>
  </metadata>
  <defs
     id="defs6">
    <linearGradient
       id="linearGradient4522"
       osb:paint="solid">
      <stop
         style="stop-color:#ff0000;stop-opacity:1;"
         offset="0"
         id="stop4520" />
    </linearGradient>
  </defs>
  <sodipodi:namedview
     pagecolor="#ffffff"
     bordercolor="#666666"
     borderopacity="1"
     objecttolerance="10"
     gridtolerance="10"
     guidetolerance="10"
     inkscape:pageopacity="0"
     inkscape:pageshadow="2"
     inkscape:window-width="1366"
     inkscape:window-height="715"
     id="namedview4"
     showgrid="false"
     inkscape:zoom="0.7071068"
     inkscape:cx="114.84257"
     inkscape:cy="251.75386"
     inkscape:window-x="-8"
     inkscape:window-y="-8"
     inkscape:window-maximized="1"
     inkscape:current-layer="layer1" />
  <g
     inkscape:groupmode="layer"
     id="layer1"
     inkscape:label="silhouette"
     style="display:inline"
     transform="translate(0,33.333344)">
    <path
       style="fill:#000000;fill-opacity:1;stroke:#000000;stroke-width:0.12389755;stroke-linecap:butt;stroke-linejoin:miter;stroke-miterlimit:4;stroke-dasharray:none;stroke-opacity:1"
       d="m 174.33974,-28.271394 c -16.97882,28.54094062 -27.8145,57.552835 -37.36285,86.665368 -7.44911,22.968301 -14.30712,45.937606 -17.76188,68.905906 -5.80743,1.56603 -11.3074,1.28616 -16.53743,-0.61223 -19.275914,-5.67763 -37.070614,-6.32222 -47.773148,17.14965 -5.750259,18.1021 -2.345509,27.04919 2.144009,34.91152 2.44304,3.64115 4.905715,7.23237 8.147715,8.87611 1.12554,-4.4325 2.11028,-9.00462 5.41326,-11.25968 1.24778,3.80327 -1.87538,5.05527 1.83185,12.25908 0.90925,1.76689 2.41868,1.95691 2.47552,2.81189 0.0629,0.94638 -2.20087,1.27983 -1.8149,2.61589 0.92879,3.21504 3.11976,10.17115 8.22515,14.7951 -0.97536,7.86484 -3.05695,16.03144 0.21779,22.73713 6.97737,10.15402 15.24889,18.6157 27.501874,21.87083 3.78889,0.39874 6.86644,-0.5041 9.79807,-1.67697 0.55914,3.84371 0.99819,7.68698 -1.24382,11.53069 -9.59022,-0.0771 -17.24379,3.3135 -22.954924,10.178 -5.62385,9.90834 -2.64304,19.79407 -3.14101,29.13286 1.8039,13.16013 -0.26405,24.66078 -1.08167,36.69739 -10.62678,18.24627 -13.98686,36.18881 -22.73714,53.70426 -4.5335,0.23275 -7.899608,-4.21186 -11.69525,-6.93052 -2.580916,-1.33459 -5.237752,-2.51548 -9.093887,-1.29946 -6.637812,2.98139 -13.475069,1.58513 -20.244666,1.66729 -2.07415,0.45536 -5.394124,0.19837 -5.664924,1.68422 0.607665,0.69963 0.427876,1.42927 4.747792,1.99157 8.483156,-0.47896 12.154247,3.71453 15.692884,8.03882 l -0.382341,1.68422 c -4.705028,-0.0569 -8.740484,0.0725 -8.880938,1.29948 1.062236,2.2759 3.190951,1.78032 4.900245,2.3739 6.20218,2.48319 12.044284,5.72043 19.753432,5.05269 8.533393,0.70186 14.817303,-1.59624 18.451543,-7.42659 23.00718,-23.76286 25.214414,-34.03379 34.425134,-48.84757 1.87615,-2.74352 2.56562,-6.67574 2.81672,-11.04431 0.26727,-6.37351 0.13069,-13.15135 0,-19.92282 h 3.02968 c 6.68108,7.42969 7.46997,18.51818 24.90293,19.27429 10.72313,3.33456 20.84743,8.13214 27.93503,20.35356 5.28325,26.289 5.41361,54.36227 20.35598,77.30772 2.05598,3.78592 4.80773,7.22523 8.49617,10.19492 0.22012,-6.09856 1.31115,-11.1086 2.67881,-15.77274 3.34641,4.04448 6.61072,8.22474 11.07576,10.45144 0.8521,-3.70503 1.71097,-7.40652 4.11378,-10.12475 6.99873,3.86131 13.56828,8.63805 22.63067,8.09689 -3.54452,-4.72525 -4.75187,-10.27487 -5.89481,-15.84774 2.15876,-1.47949 4.43527,-0.94967 6.73692,0 7.79729,10.56049 15.32877,22.72657 23.889,28.70938 10.67418,9.9972 20.52514,10.13718 29.56602,0.53479 5.11393,-5.0748 9.31092,-11.98532 13.64325,-18.62335 23.28893,1.05383 46.80687,-0.17824 69.72866,4.54694 18.33728,2.47698 36.93399,3.78559 56.08542,2.59895 l 14.93062,-1.1083 c 2.45921,17.83512 16.06136,15.66444 22.80006,10.98864 3.22471,-5.02803 5.31788,-10.68668 -2.32551,-17.67718 7.2606,1.26405 10.77629,-0.95626 12.12599,-5.19547 -0.47641,-9.74732 -9.49927,-9.34615 -16.0244,-11.91062 -9.60741,-0.38208 -18.75711,2.8869 -28.90781,-1.84152 -6.49856,-3.99085 -12.47002,-4.13047 -17.54168,2.27468 -0.0234,2.2539 0.26645,4.61163 -1.51483,6.27958 -18.23653,1.76127 -33.7124,-12.2488 -50.56327,-18.40557 -14.19383,-7.00653 -29.89757,-7.47972 -45.90985,-6.60625 6.57761,-19.61105 15.98952,-38.9381 26.63556,-58.14232 8.9721,5.80985 16.80924,5.94121 22.52177,-4.54694 1.34129,-9.13488 -2.5779,-14.88925 -12.66804,-16.67535 2.44087,-2.83586 3.82088,-5.78197 4.22267,-9.9602 -0.30769,-4.24298 -3.10959,-2.457 -4.98009,-2.92321 -10.68634,1.98987 -21.02948,5.17037 -28.58598,17.97241 -4.32322,8.28349 -9.86029,14.27499 -16.78182,17.65055 -3.76073,6.46413 0.53583,10.80592 7.68794,14.39826 -5.36863,11.59769 -14.22946,19.43526 -23.27919,27.0687 -3.64521,2.38463 -7.2902,5.80832 -10.93542,10.50226 -0.51524,-13.78351 -3.68049,-26.68255 -5.73752,-39.95212 4.33094,0.28678 8.66137,2.17648 12.99231,4.76474 -1.53613,-3.62491 -2.89705,-7.42668 -3.57415,-11.91062 3.77792,0.46729 6.18981,-0.97848 8.55425,-2.49006 -8.58192,-11.00131 -18.47401,-17.02056 -28.47466,-22.63066 5.82787,-2.75038 13.14264,-3.02239 20.68025,-2.92321 -15.89274,-10.03389 -32.2778,-19.31093 -59.20706,-12.36555 l -26.95013,6.1247 c -9.74047,0.25508 -14.08856,-2.97922 -16.61002,-7.39514 5.53132,-0.46344 10.79227,-1.89415 14.49021,-4.71391 0.9285,0.39698 1.85791,0.78995 2.82641,1.24623 10.35024,4.87626 24.10621,2.26994 39.10516,-0.46703 12.29977,-2.53881 25.5038,-6.45449 37.05553,-7.04426 7.13169,-2.90812 9.83974,-9.14646 10.41272,-15.6953 2.53395,-5.47937 4.61717,-12.69181 10.50225,-13.29479 1.17571,-0.16643 2.13261,-0.52914 2.94015,-0.49364 5.50834,0.24204 3.08647,-1.33946 0.10643,-1.73748 -2.76114,-0.36881 -6.82119,-0.75669 -8.87852,-0.16939 1.86631,-4.16238 6.7466,-5.78663 10.33528,-8.4986 1.74028,-2.7697 0.80173,-3.7309 -1.53178,-3.7508 l -11.94208,2.21902 c 2.62765,-2.18773 3.90164,-4.76167 5.13013,-7.34916 -0.2253,-0.82279 -0.4973,-1.58049 -2.22145,-0.30489 -2.72598,4.57895 -9.37408,6.83338 -13.01407,11.63716 -6.44711,7.48044 -9.80935,15.37145 -11.9445,23.42681 -10.0796,1.99227 -16.6528,-0.30047 -24.34636,-1.22446 14.70967,-12.11767 13.80644,-23.74909 10.26027,-35.29628 16.01655,-21.98301 33.03489,-43.5084 40.5474,-68.24045 6.81023,-22.42007 13.30498,-43.60723 14.88223,-66.20049 7.30241,-41.240846 7.25698,-82.480047 3.98069,-123.720895 -12.01515,36.701516 -32.41871,67.809569 -51.44894,99.834314 -13.25625,16.741341 -24.22219,33.483151 -35.52374,50.224481 -13.06641,19.59962 -25.61722,43.32586 -39.19954,58.7981 -0.3562,-11.53518 -0.36204,-24.44834 -2.60379,-35.98351 2.72318,-4.4975 5.60685,-7.89125 6.38364,-12.8568 2.09569,-13.39654 4.91267,-28.07261 -11.58879,-32.46745 -5.01381,-29.420791 -7.68716,-60.49538 -7.50402,-90.493605 -0.38442,-16.7515834 -0.52006,-33.6090005 3.06356,-52.061169 z M 164.17385,5.3672746 c 1.25282,-0.15402 1.73363,2.730344 1.61405,8.9535334 -0.63612,3.945123 -0.005,7.426052 0.2565,11.041884 -0.15161,3.035854 -0.83104,3.817901 -3.03452,0.946171 -1.52384,-4.309796 -6.13283,-4.545044 -6.32554,-9.144703 3.65624,-7.5460544 6.06963,-11.6223304 7.48951,-11.7968854 z m 145.31342,0.542052 c 1.28951,-0.201636 1.76449,4.5851774 1.89961,13.9554124 -1.74368,4.092705 -5.28307,2.368084 -7.92509,5.638307 -2.65219,1.6797 -2.8896,0.684098 -1.948,-2.134329 1.45324,-3.171109 3.13745,-6.06468 4.03151,-9.911803 1.79721,-4.9375174 3.05968,-7.4096274 3.94197,-7.5475874 z M 158.59846,28.123769 c 1.76598,0.03991 2.64547,3.442332 4.23719,8.498597 0.64469,3.487431 0.88806,4.960942 1.63584,13.861038 0.17434,2.132734 0.30196,2.690405 -2.37389,1.384169 -4.18649,-1.682457 -9.69185,-4.029532 -12.08244,-7.203965 -0.64621,-1.436924 -1.74641,-4.667006 2.10287,-9.727894 3.19573,-4.839981 5.10687,-6.842986 6.48043,-6.811945 z m 148.44716,1.53178 c 1.62216,-0.112759 2.49683,2.11799 3.0442,8.096898 0.9615,5.64024 -1.65201,8.0479 -2.95709,9.067268 -3.75697,1.929679 -9.92492,2.105617 -14.56522,2.151268 -3.08139,0.227707 -2.68896,-0.208665 -1.46402,-1.984296 5.13011,-7.403114 6.08944,-8.587842 8.41875,-11.370988 3.53184,-3.391355 5.90123,-5.847396 7.52338,-5.96015 z M 145.59163,49.663068 163.6681,61.000171 c 1.48018,15.0974 7.01425,45.472319 2.49489,45.791279 -12.2883,-2.34851 -30.59518,1.05928 -28.97558,21.2223 0.27115,3.37567 -6.88373,1.49353 -11.36615,0.44284 4.89327,-25.18374 8.75562,-52.903884 19.77037,-78.793522 z m 162.66877,2.611044 c 0.0701,28.135267 -4.92757,53.262648 -10.22155,78.365208 -7.76907,5.09884 -15.97216,14.39337 -21.37232,-3.40719 1.49735,-12.28651 -1.65405,-24.57301 -5.88514,-36.859521 -4.03888,-2.05273 9.17709,-21.360355 16.41643,-34.691315 z m -42.74465,43.983637 c 3.23163,4.827961 6.38248,9.882081 5.57539,26.018481 -0.0721,20.30289 -10.75603,32.49093 -24.77951,42.12517 -13.3854,9.55934 -22.27251,11.80884 -35.62055,15.17744 11.63682,-26.43801 30.49963,-53.96219 54.82467,-83.321091 z m 29.69669,46.137311 c 1.93238,-0.18769 1.07143,2.63427 -0.70177,3.8113 -4.59227,24.77795 -13.3703,46.82653 -27.45831,65.41161 -9.97682,6.89777 -18.80361,9.25438 -21.02628,-14.45633 4.30849,-26.04102 19.35876,-36.45601 29.03849,-54.68431 7.2124,2.81844 12.52668,4.3569 17.21256,1.28012 1.33465,-0.90373 2.29118,-1.29983 2.93531,-1.36239 z m -55.59418,35.85285 c 1.48875,0.0726 1.39111,1.30691 1.33335,3.38299 -2.80956,13.59681 -3.39836,27.46789 7.47014,40.04407 7.43755,10.25089 3.2028,13.47153 -7.69277,11.61539 -8.82576,0.17083 -18.46074,-2.53888 -27.56479,0.18392 -3.8704,2.09867 -4.2816,3.77392 -5.38422,-0.8639 -3.2011,-13.57058 0.91346,-28.05357 4.10169,-42.42281 0.33723,-3.80575 1.53974,-4.01778 4.73812,-4.66794 7.71291,-1.57538 14.43047,-4.14607 20.9198,-6.94504 0.90904,-0.24623 1.58242,-0.35087 2.07868,-0.32668 z m -40.97815,17.03592 c 0.82317,0.095 1.31453,0.90437 1.24865,2.75865 -0.53525,12.2388 -2.16004,24.88586 0.0896,36.08031 1.06667,2.99152 0.67523,5.03872 -1.03571,7.44355 -4.07865,5.67588 -11.49763,8.43087 -17.64088,12.30021 -2.48788,2.12417 -2.02566,0.0939 -4.04119,-1.47613 -4.81806,-4.85083 -7.55791,-1.3134 -6.37394,-8.72364 3.29026,-20.46565 11.13189,-23.64249 16.44303,-36.42879 5.12456,-7.83152 7.17516,-9.85944 8.70913,-10.90878 0.83531,-0.59083 1.60243,-0.97285 2.22871,-1.04297 0.13046,-0.0146 0.25506,-0.016 0.37266,-0.002 z m 26.86302,43.01809 c 7.84717,-0.17049 14.21997,2.94657 17.34566,5.19063 7.41164,5.32115 7.00579,15.71013 3.7629,24.06565 -1.56925,2.73925 -3.26099,4.42933 -5.05753,5.2366 -22.90283,2.05598 -42.72645,-7.97298 -38.12271,-24.11646 1.37675,-2.79438 6.56713,-5.41486 6.73693,-5.61895 5.38652,-3.3693 10.62646,-4.65517 15.33475,-4.75747 z m -26.58958,13.31414 c 2.08899,28.71403 22.89658,20.84176 36.38039,27.28409 -8.44745,0.93204 -17.69733,-0.53897 -25.12071,3.46525 -10.68441,-1.70456 -18.56852,-10.87563 -27.71723,-16.67534 2.61264,-8.64253 9.29389,-11.68913 16.45755,-14.074 z m -19.06134,43.50451 c 3.16924,0.0684 6.11918,-0.19188 7.47256,0.78887 1.12471,0.81503 2.22213,1.4988 3.3104,2.11013 -2.73657,1.23177 -5.46356,2.02628 -9.11809,2.10771 -0.53776,-1.68022 -1.05396,-3.37382 -1.66487,-5.00671 z"
       id="path4488"
       inkscape:connector-curvature="0" />
  </g>
</svg>
